PathFileType	4	(X/Y/Z)	 s10c0401.trc
DataRate	CameraRate	NumFrames	NumMarkers	Units	OrigDataRate	OrigDataStartFrame	OrigNumFrames
200	200	4	50	mm	200	251	2000
Frame#	Time	racr			lacr			c7			jug			rlel			rdr			llel			ldr			s2			lic			ric			lasi			rasi			rpsi			lpsi			rgt			lgt			rth1			rth2			rth3			rth4			rlfc			rmfc			rsh1			rsh2			rsh3			rsh4			rlmal			rmmal			rcal			rtoe			rmt5			lth1			lth2			lth4			lth3			llfc			lmfc			llmal			lmmal			lcal			lmt5			lsh1			lsh2			lsh3			lsh4			ltoe			SBIKE			LBIKE			RBIKE			
		X1	Y1	Z1	X2	Y2	Z2	X3	Y3	Z3	X4	Y4	Z4	X5	Y5	Z5	X6	Y6	Z6	X7	Y7	Z7	X8	Y8	Z8	X9	Y9	Z9	X10	Y10	Z10	X11	Y11	Z11	X12	Y12	Z12	X13	Y13	Z13	X14	Y14	Z14	X15	Y15	Z15	X16	Y16	Z16	X17	Y17	Z17	X18	Y18	Z18	X19	Y19	Z19	X20	Y20	Z20	X21	Y21	Z21	X22	Y22	Z22	X23	Y23	Z23	X24	Y24	Z24	X25	Y25	Z25	X26	Y26	Z26	X27	Y27	Z27	X28	Y28	Z28	X29	Y29	Z29	X30	Y30	Z30	X31	Y31	Z31	X32	Y32	Z32	X33	Y33	Z33	X34	Y34	Z34	X35	Y35	Z35	X36	Y36	Z36	X37	Y37	Z37	X38	Y38	Z38	X39	Y39	Z39	X40	Y40	Z40	X41	Y41	Z41	X42	Y42	Z42	X43	Y43	Z43	X44	Y44	Z44	X45	Y45	Z45	X46	Y46	Z46	X47	Y47	Z47	X48	Y48	Z48	X49	Y49	Z49	X50	Y50	Z50	
251	1.2550	370.157800	1318.113107	-21.666086	391.369679	1310.985570	-363.254323	361.429686	1367.253562	-192.623607	378.108362	1224.987934	-184.890376	455.834675	1071.578249	44.391849	623.056384	913.028636	7.263818	463.854488	1053.643405	-446.501287	644.152721	915.796221	-389.524047	-105.824593	1088.992154	-217.083588	64.678053	1108.682124	-362.874659	64.011359	1118.179776	-65.402671	98.507489	1020.557794	-329.318586	66.682068	1027.821663	-77.310178	-71.760947	1141.738292	-159.428623	-60.610812	1147.984018	-269.607368	-47.987660	1001.751617	-21.807651	-29.139509	974.008005	-407.404500	49.853032	908.007031	12.749569	138.907778	900.822306	12.411001	208.426456	850.936587	14.141140	150.645133	936.077883	3.871205	320.833054	808.583366	5.688399	328.002031	804.728390	-112.522332	270.784891	701.144566	18.838978	274.862732	614.180194	-1.661843	235.074463	539.165831	-18.128338	306.100836	613.025260	-23.690743	211.315119	441.434195	-46.295374	239.413757	465.108672	-121.815456	162.394060	419.853150	-96.583508	403.950192	404.540648	-79.789822	319.371449	376.100612	-22.549304	44.890979	868.631252	-426.418926	120.195064	825.791387	-417.845009	144.958630	851.247108	-407.213832	164.437438	748.603405	-415.197523	237.417123	660.789002	-398.797047	239.395091	655.223979	-278.637181	-30.842165	396.232409	-378.279841	-16.141608	392.409783	-297.798399	-94.596668	396.229134	-334.039903	26.772610	267.737244	-397.671775	141.244639	583.346747	-422.903064	107.460676	503.593371	-404.290607	35.090658	452.106827	-397.667393	130.794385	490.895848	-377.648719	110.390189	248.681712	-339.458668	-205.224351	834.524391	-224.412971	-78.413481	81.359967	-423.287718	-102.748749	80.502504	-24.426928	
252	1.2600	370.164449	1318.060236	-21.673948	391.351747	1310.911482	-363.291879	361.481933	1367.169435	-192.630931	378.095854	1224.936412	-184.937667	455.742595	1071.449074	44.439911	623.043394	913.033011	7.281982	463.736092	1053.497977	-446.543896	644.154236	915.801928	-389.581482	-105.791520	1088.999326	-217.092696	64.713002	1108.695585	-362.909338	64.037636	1118.185790	-65.465138	98.509538	1020.526759	-329.320866	66.720558	1027.824603	-77.353438	-71.699647	1141.738717	-159.476643	-60.572055	1147.977964	-269.614492	-47.954255	1001.756600	-21.818842	-29.117548	974.025850	-407.427810	49.861738	907.988741	12.764642	138.922044	900.764362	12.404193	208.436959	850.892349	14.134411	150.653684	936.051272	3.887127	320.825194	808.528016	5.667859	327.976347	804.665017	-112.522072	270.748382	701.036319	18.848432	274.819904	614.114430	-1.652590	235.020300	539.113365	-18.117096	306.077967	612.999875	-23.681314	211.299615	441.351421	-46.285594	239.363770	465.021173	-121.799749	162.470884	419.875137	-96.652760	403.956587	404.514032	-79.791423	319.377057	376.052187	-22.555712	44.924084	868.648481	-426.439260	120.234061	825.802063	-417.867042	144.991450	851.269461	-407.245329	164.482479	748.621419	-415.204538	237.462644	660.796118	-398.779342	239.448131	655.251587	-278.642850	-30.830302	396.288397	-378.281781	-16.093629	392.428025	-297.812203	-94.577080	396.306008	-334.045805	26.772986	267.775944	-397.670857	141.289371	583.365900	-422.887612	107.509711	503.634290	-404.295710	35.112413	452.156273	-397.670493	130.820107	490.925753	-377.631492	110.389522	248.687654	-339.432506	-205.221205	834.536882	-224.396135	-78.374254	81.399219	-423.385479	-102.743990	80.482258	-24.422845	
253	1.2650	370.148778	1317.978960	-21.701132	391.334379	1310.832210	-363.320821	361.567365	1367.092181	-192.656421	378.117475	1224.875095	-184.935156	455.652841	1071.388760	44.434865	623.041242	913.040469	7.302197	463.629629	1053.346313	-446.575093	644.153797	915.815408	-389.632451	-105.732980	1088.998994	-217.100075	64.751863	1108.675595	-362.917539	64.056948	1118.189123	-65.486789	98.559010	1020.541633	-329.380315	66.740882	1027.826253	-77.340376	-71.690511	1141.743470	-159.478252	-60.502883	1147.974352	-269.634117	-47.932165	1001.745665	-21.835715	-29.093986	974.030113	-407.459133	49.865677	907.964865	12.766113	138.930897	900.703348	12.402171	208.436931	850.850098	14.105754	150.682716	935.965681	3.872989	320.823837	808.444846	5.654544	327.965091	804.601615	-112.538827	270.703699	700.970818	18.836723	274.815692	614.063346	-1.672304	235.033614	539.046217	-18.130860	306.058688	612.965174	-23.665764	211.310371	441.307450	-46.294737	239.351203	464.991412	-121.803008	162.448870	419.785053	-96.637134	403.954350	404.472134	-79.790527	319.387610	376.010055	-22.541523	44.933157	868.653667	-426.447594	120.265530	825.823430	-417.867330	145.032565	851.309660	-407.261427	164.506878	748.634178	-415.188549	237.513494	660.829268	-398.795363	239.495100	655.287297	-278.645542	-30.809911	396.339629	-378.288476	-16.079166	392.468535	-297.825359	-94.554911	396.372826	-334.033879	26.772396	267.832985	-397.669581	141.325579	583.396502	-422.893010	107.526013	503.694120	-404.301652	35.138369	452.206013	-397.655728	130.861409	490.967510	-377.638623	110.370532	248.725900	-339.444676	-205.223154	834.532603	-224.400021	-78.369654	81.429813	-423.366186	-102.746706	80.494460	-24.426760	
254	1.2700	370.140101	1317.900756	-21.702856	391.309427	1310.744974	-363.361731	361.647042	1367.046911	-192.682978	378.108422	1224.824329	-184.951263	455.541370	1071.298957	44.447968	623.031313	913.037905	7.344421	463.496368	1053.222559	-446.618263	644.137454	915.834839	-389.658720	-105.701068	1089.026093	-217.134693	64.788327	1108.659877	-362.947708	64.085411	1118.187211	-65.551917	98.589503	1020.519739	-329.411876	66.786235	1027.832248	-77.376282	-71.649753	1141.751593	-159.491688	-60.453742	1147.972362	-269.635897	-47.903267	1001.762792	-21.841926	-29.073730	974.033715	-407.465971	49.873478	907.935749	12.765657	138.921884	900.643725	12.402243	208.428757	850.811859	14.096365	150.688725	935.928300	3.872859	320.806647	808.373506	5.653939	327.955849	804.520889	-112.532710	270.701489	700.875484	18.796829	274.795296	614.016208	-1.656824	235.019731	538.987857	-18.129005	306.059022	612.908543	-23.672033	211.321146	441.237746	-46.304087	239.340645	464.946412	-121.799753	162.478294	419.643490	-96.613316	403.965121	404.439981	-79.787560	319.385849	375.956334	-22.537409	44.964401	868.663142	-426.441194	120.294044	825.849250	-417.880743	145.051158	851.327917	-407.259231	164.549730	748.666664	-415.205088	237.550063	660.830673	-398.784334	239.546584	655.318678	-278.646161	-30.796743	396.394388	-378.266952	-16.031633	392.488660	-297.824693	-94.551380	396.441445	-334.028272	26.749111	267.863090	-397.680751	141.363987	583.425180	-422.910200	107.560697	503.734496	-404.308485	35.153081	452.253066	-397.669575	130.881121	490.999894	-377.641767	110.363767	248.760787	-339.451600	-205.229041	834.537402	-224.394868	-78.371343	81.412915	-423.386154	-102.737955	80.488272	-24.435112	
